<svg width="80" height="80" viewBox="0 0 80 80" fill="none" xmlns="http://www.w3.org/2000/svg">
<g clip-path="url(#clip0_598_259)">
<path d="M63.3333 10H41.5733C41.06 10 40.54 9.88 40.0833 9.65L29.5633 4.39C28.18 3.7 26.6367 3.33667 25.0933 3.33667H16.6667C7.47667 3.33334 0 10.81 0 20V60C0 69.19 7.47667 76.6667 16.6667 76.6667H20C21.84 76.6667 23.3333 75.1767 23.3333 73.3333C23.3333 71.49 21.84 70 20 70H16.6667C11.1533 70 6.66667 65.5133 6.66667 60V30H73.3333V60C73.3333 65.5133 68.8467 70 63.3333 70H60C58.1567 70 56.6667 71.49 56.6667 73.3333C56.6667 75.1767 58.1567 76.6667 60 76.6667H63.3333C72.5233 76.6667 80 69.19 80 60V26.6667C80 17.4767 72.5233 10 63.3333 10ZM6.66667 20C6.66667 14.4867 11.1533 10 16.6667 10H25.0933C25.6067 10 26.1267 10.12 26.5833 10.35L37.1033 15.61C38.4867 16.3 40.03 16.6633 41.5733 16.6633H63.3333C67.6733 16.6633 71.34 19.46 72.72 23.33H6.66667V20ZM52.3567 63.6833C53.66 64.9867 53.66 67.0933 52.3567 68.3967L46.98 73.7733C45.0567 75.6967 42.53 76.6567 40 76.6567C37.47 76.6567 34.9467 75.6967 33.0233 73.7733L27.6433 68.3967C26.34 67.0933 26.34 64.9867 27.6433 63.6833C28.9467 62.38 31.0533 62.38 32.3567 63.6833L36.6667 67.9933V43.3333C36.6667 41.49 38.16 40 40 40C41.84 40 43.3333 41.49 43.3333 43.3333V67.9933L47.6433 63.6833C48.9467 62.38 51.0533 62.38 52.3567 63.6833Z" fill="#3D46A1"/>
</g>
<defs>
<clipPath id="clip0_598_259">
<rect width="80" height="80" fill="white"/>
</clipPath>
</defs>
</svg>
